<?xml version="1.0" encoding="utf-8"?>
<!-- Generator: Avocode 2.6.0 - http://avocode.com -->
<svg height="42" width="170" xmlns:xlink="http://www.w3.org/1999/xlink" xmlns="http://www.w3.org/2000/svg" viewBox="0 0 170 42">
    <path fill="#000000" fill-rule="evenodd" d="M 152.12 17.66 L 135.34 28.9 Z L 118.57 17.66 Z L 101.8 28.9 Z L 85.02 17.66 Z L 68.25 28.9 Z L 51.46 17.66 Z L 34.68 28.9 Z L 17.89 17.66 Z L 2.21 28.15 Z L -0.01 25.08 Z L 17.89 13.1 Z L 34.68 24.34 Z L 51.46 13.1 Z L 68.25 24.34 Z L 85.02 13.1 Z L 101.8 24.34 Z L 118.57 13.1 Z L 135.34 24.34 Z L 152.12 13.1 Z L 170.01 25.08 Z L 167.79 28.15 Z L 152.12 17.66 Z Z M 152.12 4.56 L 135.34 15.79 Z L 118.57 4.56 Z L 101.8 15.79 Z L 85.02 4.56 Z L 68.25 15.79 Z L 51.46 4.56 Z L 34.68 15.79 Z L 17.89 4.56 Z L 2.21 15.05 Z L -0.01 11.98 Z L 17.89 0 Z L 34.68 11.23 Z L 51.46 0 Z L 68.25 11.23 Z L 85.02 0 Z L 101.8 11.23 Z L 118.57 0 Z L 135.34 11.23 Z L 152.12 0 Z L 170.01 11.98 Z L 167.79 15.05 Z L 152.12 4.56 Z Z M 34.68 37.44 L 51.46 26.21 Z L 68.25 37.44 Z L 85.02 26.21 Z L 101.8 37.44 Z L 118.57 26.21 Z L 135.34 37.44 Z L 152.12 26.21 Z L 170.01 38.18 Z L 167.79 41.26 Z L 152.12 30.77 Z L 135.34 42 Z L 118.57 30.77 Z L 101.8 42 Z L 85.02 30.77 Z L 68.25 42 Z L 51.46 30.77 Z L 34.68 42 Z L 17.89 30.77 Z L 2.21 41.26 Z L -0.01 38.18 Z L 17.89 26.21 Z L 34.68 37.44 Z Z" />
</svg>